<mxfile host="app.diagrams.net" modified="2024-01-12T11:04:21.834Z" agent="Mozilla/5.0 (Macintosh; Intel Mac OS X 10_15_7) AppleWebKit/537.36 (KHTML, like Gecko) Chrome/116.0.0.0 Safari/537.36" etag="HUCDnbHpDHKZmZMELwEv" version="22.1.18" type="device">
  <diagram name="Page-1" id="58cdce13-f638-feb5-8d6f-7d28b1aa9fa0">
    <mxGraphModel dx="3259" dy="559" grid="1" gridSize="10" guides="1" tooltips="1" connect="1" arrows="1" fold="1" page="1" pageScale="1" pageWidth="1100" pageHeight="850" background="none" math="0" shadow="0">
      <root>
        <mxCell id="0" />
        <mxCell id="1" parent="0" />
        <mxCell id="382b91b5511bd0f7-1" value="" style="ellipse;html=1;shape=startState;fillColor=#000000;strokeColor=#000000;rounded=1;shadow=0;comic=0;labelBackgroundColor=none;fontFamily=Verdana;fontSize=12;fontColor=#000000;align=center;direction=south;" parent="1" vertex="1">
          <mxGeometry x="-1040" y="74" width="30" height="30" as="geometry" />
        </mxCell>
        <mxCell id="qKRQruOHC8RujGuLGtq7-36" value="" style="edgeStyle=orthogonalEdgeStyle;rounded=0;orthogonalLoop=1;jettySize=auto;html=1;" edge="1" parent="1" source="382b91b5511bd0f7-6" target="382b91b5511bd0f7-7">
          <mxGeometry relative="1" as="geometry" />
        </mxCell>
        <mxCell id="382b91b5511bd0f7-6" value="" style="rounded=1;whiteSpace=wrap;html=1;arcSize=24;fillColor=#e1d5e7;strokeColor=#9673a6;shadow=0;comic=0;labelBackgroundColor=none;fontFamily=Verdana;fontSize=12;align=center;" parent="1" vertex="1">
          <mxGeometry x="-930" y="59" width="120" height="60" as="geometry" />
        </mxCell>
        <mxCell id="qKRQruOHC8RujGuLGtq7-37" value="" style="edgeStyle=orthogonalEdgeStyle;rounded=0;orthogonalLoop=1;jettySize=auto;html=1;" edge="1" parent="1" source="382b91b5511bd0f7-7" target="qKRQruOHC8RujGuLGtq7-7">
          <mxGeometry relative="1" as="geometry" />
        </mxCell>
        <mxCell id="382b91b5511bd0f7-7" value="&lt;p style=&quot;font-size: 20px;&quot;&gt;&lt;font face=&quot;Times New Roman&quot;&gt;&lt;b&gt;Loan Origination&lt;/b&gt;&lt;/font&gt;&lt;/p&gt;" style="rounded=1;whiteSpace=wrap;html=1;arcSize=24;fillColor=#f8cecc;strokeColor=#b85450;shadow=0;comic=0;labelBackgroundColor=none;fontFamily=Verdana;fontSize=12;align=center;" parent="1" vertex="1">
          <mxGeometry x="-975" y="199" width="210" height="80" as="geometry" />
        </mxCell>
        <mxCell id="2a3bc250acf0617d-9" style="edgeStyle=orthogonalEdgeStyle;html=1;labelBackgroundColor=none;endArrow=open;endSize=8;strokeColor=#000000;fontFamily=Verdana;fontSize=12;align=left;" parent="1" source="382b91b5511bd0f7-1" target="382b91b5511bd0f7-6" edge="1">
          <mxGeometry relative="1" as="geometry" />
        </mxCell>
        <mxCell id="qKRQruOHC8RujGuLGtq7-2" value="Initial" style="text;html=1;align=center;verticalAlign=middle;resizable=0;points=[];autosize=1;strokeColor=none;fillColor=none;fontFamily=Times New Roman;fontStyle=1;fontSize=20;" vertex="1" parent="1">
          <mxGeometry x="-910" y="69" width="80" height="40" as="geometry" />
        </mxCell>
        <mxCell id="qKRQruOHC8RujGuLGtq7-17" value="" style="edgeStyle=orthogonalEdgeStyle;rounded=0;orthogonalLoop=1;jettySize=auto;html=1;" edge="1" parent="1" source="qKRQruOHC8RujGuLGtq7-7" target="qKRQruOHC8RujGuLGtq7-8">
          <mxGeometry relative="1" as="geometry" />
        </mxCell>
        <mxCell id="qKRQruOHC8RujGuLGtq7-38" value="" style="edgeStyle=orthogonalEdgeStyle;rounded=0;orthogonalLoop=1;jettySize=auto;html=1;" edge="1" parent="1" source="qKRQruOHC8RujGuLGtq7-7" target="qKRQruOHC8RujGuLGtq7-10">
          <mxGeometry relative="1" as="geometry" />
        </mxCell>
        <mxCell id="qKRQruOHC8RujGuLGtq7-7" value="&lt;p style=&quot;font-size: 20px;&quot;&gt;&lt;font face=&quot;Times New Roman&quot;&gt;&lt;b&gt;Loan Decision&lt;/b&gt;&lt;/font&gt;&lt;/p&gt;" style="rounded=1;whiteSpace=wrap;html=1;arcSize=24;fillColor=#f8cecc;strokeColor=#b85450;shadow=0;comic=0;labelBackgroundColor=none;fontFamily=Verdana;fontSize=12;align=center;" vertex="1" parent="1">
          <mxGeometry x="-975" y="357" width="210" height="80" as="geometry" />
        </mxCell>
        <mxCell id="qKRQruOHC8RujGuLGtq7-8" value="&lt;p style=&quot;font-size: 20px;&quot;&gt;&lt;font face=&quot;Times New Roman&quot;&gt;&lt;b&gt;Loan Proposal_Rejected&lt;/b&gt;&lt;/font&gt;&lt;/p&gt;" style="rounded=1;whiteSpace=wrap;html=1;arcSize=24;fillColor=#d5e8d4;strokeColor=#82b366;shadow=0;comic=0;labelBackgroundColor=none;fontFamily=Verdana;fontSize=12;align=center;" vertex="1" parent="1">
          <mxGeometry x="-690" y="357" width="210" height="80" as="geometry" />
        </mxCell>
        <mxCell id="qKRQruOHC8RujGuLGtq7-39" value="" style="edgeStyle=orthogonalEdgeStyle;rounded=0;orthogonalLoop=1;jettySize=auto;html=1;" edge="1" parent="1" source="qKRQruOHC8RujGuLGtq7-10" target="qKRQruOHC8RujGuLGtq7-21">
          <mxGeometry relative="1" as="geometry" />
        </mxCell>
        <mxCell id="qKRQruOHC8RujGuLGtq7-10" value="&lt;p style=&quot;font-size: 20px;&quot;&gt;&lt;font face=&quot;Times New Roman&quot;&gt;&lt;b&gt;Loan Proposal_Accepted&lt;/b&gt;&lt;/font&gt;&lt;/p&gt;" style="rounded=1;whiteSpace=wrap;html=1;arcSize=24;fillColor=#d5e8d4;strokeColor=#82b366;shadow=0;comic=0;labelBackgroundColor=none;fontFamily=Verdana;fontSize=12;align=center;" vertex="1" parent="1">
          <mxGeometry x="-975" y="520" width="210" height="80" as="geometry" />
        </mxCell>
        <mxCell id="qKRQruOHC8RujGuLGtq7-48" value="" style="edgeStyle=orthogonalEdgeStyle;rounded=0;orthogonalLoop=1;jettySize=auto;html=1;" edge="1" parent="1" source="qKRQruOHC8RujGuLGtq7-21">
          <mxGeometry relative="1" as="geometry">
            <mxPoint x="-870" y="881" as="targetPoint" />
          </mxGeometry>
        </mxCell>
        <mxCell id="qKRQruOHC8RujGuLGtq7-21" value="&lt;p style=&quot;font-size: 20px;&quot;&gt;&lt;font face=&quot;Times New Roman&quot;&gt;&lt;b&gt;Loan Processing&lt;/b&gt;&lt;/font&gt;&lt;/p&gt;" style="rounded=1;whiteSpace=wrap;html=1;arcSize=24;fillColor=#f8cecc;strokeColor=#b85450;shadow=0;comic=0;labelBackgroundColor=none;fontFamily=Verdana;fontSize=12;align=center;" vertex="1" parent="1">
          <mxGeometry x="-975" y="681" width="210" height="80" as="geometry" />
        </mxCell>
        <mxCell id="qKRQruOHC8RujGuLGtq7-25" value="" style="edgeStyle=orthogonalEdgeStyle;rounded=0;orthogonalLoop=1;jettySize=auto;html=1;" edge="1" parent="1" source="qKRQruOHC8RujGuLGtq7-22" target="qKRQruOHC8RujGuLGtq7-24">
          <mxGeometry relative="1" as="geometry" />
        </mxCell>
        <mxCell id="qKRQruOHC8RujGuLGtq7-22" value="&lt;font style=&quot;font-size: 20px;&quot;&gt;&lt;b&gt;Final&lt;/b&gt;&lt;/font&gt;" style="rounded=1;whiteSpace=wrap;html=1;arcSize=24;fillColor=#e1d5e7;strokeColor=#9673a6;shadow=0;comic=0;labelBackgroundColor=none;fontFamily=Times New Roman;fontSize=12;align=center;" vertex="1" parent="1">
          <mxGeometry x="-403" y="367" width="120" height="60" as="geometry" />
        </mxCell>
        <mxCell id="qKRQruOHC8RujGuLGtq7-23" value="" style="edgeStyle=orthogonalEdgeStyle;rounded=0;orthogonalLoop=1;jettySize=auto;html=1;" edge="1" parent="1">
          <mxGeometry relative="1" as="geometry">
            <mxPoint x="-479" y="396" as="sourcePoint" />
            <mxPoint x="-404" y="396" as="targetPoint" />
          </mxGeometry>
        </mxCell>
        <mxCell id="qKRQruOHC8RujGuLGtq7-24" value="" style="ellipse;html=1;shape=startState;fillColor=#000000;strokeColor=#000000;rounded=1;shadow=0;comic=0;labelBackgroundColor=none;fontFamily=Verdana;fontSize=12;fontColor=#000000;align=center;direction=south;" vertex="1" parent="1">
          <mxGeometry x="-358" y="240" width="30" height="30" as="geometry" />
        </mxCell>
        <mxCell id="qKRQruOHC8RujGuLGtq7-27" value="&lt;h1&gt;&lt;span style=&quot;background-color: initial;&quot;&gt;&lt;font style=&quot;font-size: 25px;&quot; face=&quot;Times New Roman&quot;&gt;Citi Bank&lt;/font&gt;&lt;/span&gt;&lt;/h1&gt;&lt;h1 style=&quot;line-height: 0%;&quot;&gt;&lt;span style=&quot;background-color: initial;&quot;&gt;&lt;font style=&quot;font-size: 20px;&quot; face=&quot;Times New Roman&quot;&gt;Loan Management System&lt;/font&gt;&lt;/span&gt;&lt;br&gt;&lt;/h1&gt;" style="text;html=1;strokeColor=none;fillColor=none;spacing=5;spacingTop=-20;whiteSpace=wrap;overflow=hidden;rounded=0;" vertex="1" parent="1">
          <mxGeometry x="-790" y="53" width="600" height="120" as="geometry" />
        </mxCell>
        <mxCell id="qKRQruOHC8RujGuLGtq7-31" value="Customer.getProposal / Lender.askProposal" style="text;html=1;strokeColor=none;fillColor=none;align=center;verticalAlign=middle;whiteSpace=wrap;rounded=0;fontFamily=Times New Roman;fontSize=15;fontStyle=1" vertex="1" parent="1">
          <mxGeometry x="-1010" y="140" width="60" height="30" as="geometry" />
        </mxCell>
        <mxCell id="qKRQruOHC8RujGuLGtq7-34" value="Lender.askProposal / Customer.getProposal" style="text;html=1;strokeColor=none;fillColor=none;align=center;verticalAlign=middle;whiteSpace=wrap;rounded=0;fontFamily=Times New Roman;fontSize=15;fontStyle=1" vertex="1" parent="1">
          <mxGeometry x="-1010" y="300" width="60" height="30" as="geometry" />
        </mxCell>
        <mxCell id="qKRQruOHC8RujGuLGtq7-41" value="" style="edgeStyle=orthogonalEdgeStyle;rounded=0;orthogonalLoop=1;jettySize=auto;html=1;" edge="1" parent="1" source="qKRQruOHC8RujGuLGtq7-40" target="qKRQruOHC8RujGuLGtq7-22">
          <mxGeometry relative="1" as="geometry" />
        </mxCell>
        <mxCell id="qKRQruOHC8RujGuLGtq7-40" value="&lt;p style=&quot;font-size: 20px;&quot;&gt;&lt;font face=&quot;Times New Roman&quot;&gt;&lt;b&gt;Loan Disbursed&lt;/b&gt;&lt;/font&gt;&lt;/p&gt;" style="rounded=1;whiteSpace=wrap;html=1;arcSize=24;fillColor=#f8cecc;strokeColor=#b85450;shadow=0;comic=0;labelBackgroundColor=none;fontFamily=Verdana;fontSize=12;align=center;" vertex="1" parent="1">
          <mxGeometry x="-447" y="520" width="210" height="80" as="geometry" />
        </mxCell>
        <mxCell id="qKRQruOHC8RujGuLGtq7-43" value="" style="edgeStyle=orthogonalEdgeStyle;rounded=0;orthogonalLoop=1;jettySize=auto;html=1;" edge="1" parent="1" source="qKRQruOHC8RujGuLGtq7-42" target="qKRQruOHC8RujGuLGtq7-40">
          <mxGeometry relative="1" as="geometry" />
        </mxCell>
        <mxCell id="qKRQruOHC8RujGuLGtq7-42" value="&lt;p style=&quot;font-size: 20px;&quot;&gt;&lt;font face=&quot;Times New Roman&quot;&gt;&lt;b&gt;Loan Signing&lt;/b&gt;&lt;/font&gt;&lt;/p&gt;" style="rounded=1;whiteSpace=wrap;html=1;arcSize=24;fillColor=#f8cecc;strokeColor=#b85450;shadow=0;comic=0;labelBackgroundColor=none;fontFamily=Verdana;fontSize=12;align=center;" vertex="1" parent="1">
          <mxGeometry x="-447" y="681" width="210" height="80" as="geometry" />
        </mxCell>
        <mxCell id="qKRQruOHC8RujGuLGtq7-46" value="" style="edgeStyle=orthogonalEdgeStyle;rounded=0;orthogonalLoop=1;jettySize=auto;html=1;entryX=0.495;entryY=0.988;entryDx=0;entryDy=0;entryPerimeter=0;" edge="1" parent="1" target="qKRQruOHC8RujGuLGtq7-42">
          <mxGeometry relative="1" as="geometry">
            <mxPoint x="-440" y="960" as="sourcePoint" />
            <mxPoint x="-343" y="770" as="targetPoint" />
            <Array as="points">
              <mxPoint x="-343" y="960" />
            </Array>
          </mxGeometry>
        </mxCell>
        <mxCell id="qKRQruOHC8RujGuLGtq7-44" value="&lt;font style=&quot;font-size: 15px;&quot;&gt;Loan Processing&amp;nbsp;&lt;/font&gt;" style="swimlane;whiteSpace=wrap;html=1;fontStyle=1;fillColor=#f8cecc;strokeColor=#b85450;" vertex="1" parent="1">
          <mxGeometry x="-1280" y="880" width="840" height="140" as="geometry" />
        </mxCell>
        <mxCell id="qKRQruOHC8RujGuLGtq7-79" value="" style="edgeStyle=orthogonalEdgeStyle;rounded=0;orthogonalLoop=1;jettySize=auto;html=1;" edge="1" parent="qKRQruOHC8RujGuLGtq7-44" source="qKRQruOHC8RujGuLGtq7-62" target="qKRQruOHC8RujGuLGtq7-77">
          <mxGeometry relative="1" as="geometry" />
        </mxCell>
        <mxCell id="qKRQruOHC8RujGuLGtq7-62" value="&lt;font face=&quot;Times New Roman&quot; style=&quot;font-size: 15px;&quot;&gt;&lt;b&gt;Fetching the Bank Details&amp;nbsp;&lt;/b&gt;&lt;/font&gt;" style="rounded=1;whiteSpace=wrap;html=1;fillColor=#fff2cc;strokeColor=#d6b656;" vertex="1" parent="qKRQruOHC8RujGuLGtq7-44">
          <mxGeometry x="120" y="88" width="240" height="40" as="geometry" />
        </mxCell>
        <mxCell id="qKRQruOHC8RujGuLGtq7-78" value="" style="edgeStyle=orthogonalEdgeStyle;rounded=0;orthogonalLoop=1;jettySize=auto;html=1;entryX=0;entryY=0.5;entryDx=0;entryDy=0;" edge="1" parent="qKRQruOHC8RujGuLGtq7-44" source="qKRQruOHC8RujGuLGtq7-63" target="qKRQruOHC8RujGuLGtq7-76">
          <mxGeometry relative="1" as="geometry" />
        </mxCell>
        <mxCell id="qKRQruOHC8RujGuLGtq7-63" value="&lt;font face=&quot;Times New Roman&quot; style=&quot;font-size: 15px;&quot;&gt;&lt;b&gt;Fetching Loan Processing Form&amp;nbsp;&lt;/b&gt;&lt;/font&gt;" style="rounded=1;whiteSpace=wrap;html=1;fillColor=#fff2cc;strokeColor=#d6b656;" vertex="1" parent="qKRQruOHC8RujGuLGtq7-44">
          <mxGeometry x="120" y="32" width="240" height="40" as="geometry" />
        </mxCell>
        <mxCell id="qKRQruOHC8RujGuLGtq7-73" value="" style="edgeStyle=orthogonalEdgeStyle;rounded=0;orthogonalLoop=1;jettySize=auto;html=1;" edge="1" parent="qKRQruOHC8RujGuLGtq7-44" source="qKRQruOHC8RujGuLGtq7-67" target="qKRQruOHC8RujGuLGtq7-63">
          <mxGeometry relative="1" as="geometry" />
        </mxCell>
        <mxCell id="qKRQruOHC8RujGuLGtq7-67" value="" style="ellipse;html=1;shape=startState;fillColor=#000000;strokeColor=#000000;rounded=1;shadow=0;comic=0;labelBackgroundColor=none;fontFamily=Verdana;fontSize=12;fontColor=#000000;align=center;direction=south;" vertex="1" parent="qKRQruOHC8RujGuLGtq7-44">
          <mxGeometry x="30" y="37" width="30" height="30" as="geometry" />
        </mxCell>
        <mxCell id="qKRQruOHC8RujGuLGtq7-75" value="" style="edgeStyle=orthogonalEdgeStyle;rounded=0;orthogonalLoop=1;jettySize=auto;html=1;" edge="1" parent="qKRQruOHC8RujGuLGtq7-44" source="qKRQruOHC8RujGuLGtq7-68">
          <mxGeometry relative="1" as="geometry">
            <mxPoint x="120" y="108" as="targetPoint" />
            <Array as="points">
              <mxPoint x="120" y="108" />
            </Array>
          </mxGeometry>
        </mxCell>
        <mxCell id="qKRQruOHC8RujGuLGtq7-68" value="" style="ellipse;html=1;shape=startState;fillColor=#000000;strokeColor=#000000;rounded=1;shadow=0;comic=0;labelBackgroundColor=none;fontFamily=Verdana;fontSize=12;fontColor=#000000;align=center;direction=south;" vertex="1" parent="qKRQruOHC8RujGuLGtq7-44">
          <mxGeometry x="30" y="93" width="30" height="30" as="geometry" />
        </mxCell>
        <mxCell id="qKRQruOHC8RujGuLGtq7-69" value="" style="ellipse;html=1;shape=startState;fillColor=#000000;strokeColor=#000000;rounded=1;shadow=0;comic=0;labelBackgroundColor=none;fontFamily=Verdana;fontSize=12;fontColor=#000000;align=center;direction=south;" vertex="1" parent="qKRQruOHC8RujGuLGtq7-44">
          <mxGeometry x="780" y="93" width="30" height="30" as="geometry" />
        </mxCell>
        <mxCell id="qKRQruOHC8RujGuLGtq7-71" value="" style="ellipse;html=1;shape=startState;fillColor=#000000;strokeColor=#000000;rounded=1;shadow=0;comic=0;labelBackgroundColor=none;fontFamily=Verdana;fontSize=12;fontColor=#000000;align=center;direction=south;" vertex="1" parent="qKRQruOHC8RujGuLGtq7-44">
          <mxGeometry x="780" y="37" width="30" height="30" as="geometry" />
        </mxCell>
        <mxCell id="qKRQruOHC8RujGuLGtq7-80" value="" style="edgeStyle=orthogonalEdgeStyle;rounded=0;orthogonalLoop=1;jettySize=auto;html=1;" edge="1" parent="qKRQruOHC8RujGuLGtq7-44" source="qKRQruOHC8RujGuLGtq7-76" target="qKRQruOHC8RujGuLGtq7-71">
          <mxGeometry relative="1" as="geometry" />
        </mxCell>
        <mxCell id="qKRQruOHC8RujGuLGtq7-76" value="&lt;font face=&quot;Times New Roman&quot;&gt;&lt;span style=&quot;font-size: 15px;&quot;&gt;&lt;b&gt;Verification of the entered details&lt;/b&gt;&lt;/span&gt;&lt;/font&gt;" style="rounded=1;whiteSpace=wrap;html=1;fillColor=#fff2cc;strokeColor=#d6b656;" vertex="1" parent="qKRQruOHC8RujGuLGtq7-44">
          <mxGeometry x="460" y="32" width="240" height="40" as="geometry" />
        </mxCell>
        <mxCell id="qKRQruOHC8RujGuLGtq7-81" value="" style="edgeStyle=orthogonalEdgeStyle;rounded=0;orthogonalLoop=1;jettySize=auto;html=1;" edge="1" parent="qKRQruOHC8RujGuLGtq7-44" source="qKRQruOHC8RujGuLGtq7-77" target="qKRQruOHC8RujGuLGtq7-69">
          <mxGeometry relative="1" as="geometry" />
        </mxCell>
        <mxCell id="qKRQruOHC8RujGuLGtq7-77" value="&lt;font face=&quot;Times New Roman&quot;&gt;&lt;span style=&quot;font-size: 15px;&quot;&gt;&lt;b&gt;Verification of the Bank Details&lt;/b&gt;&lt;/span&gt;&lt;/font&gt;" style="rounded=1;whiteSpace=wrap;html=1;fillColor=#fff2cc;strokeColor=#d6b656;" vertex="1" parent="qKRQruOHC8RujGuLGtq7-44">
          <mxGeometry x="460" y="88" width="240" height="40" as="geometry" />
        </mxCell>
        <mxCell id="qKRQruOHC8RujGuLGtq7-50" value="Customer.getProposal / Lender.porcessLoan" style="text;html=1;strokeColor=none;fillColor=none;align=center;verticalAlign=middle;whiteSpace=wrap;rounded=0;fontFamily=Times New Roman;fontSize=15;fontStyle=1" vertex="1" parent="1">
          <mxGeometry x="-1010" y="620" width="60" height="30" as="geometry" />
        </mxCell>
        <mxCell id="qKRQruOHC8RujGuLGtq7-51" value="Customer.exitProcess/&amp;nbsp;&lt;br&gt;Lender.logout&amp;nbsp;" style="text;html=1;strokeColor=none;fillColor=none;align=center;verticalAlign=middle;whiteSpace=wrap;rounded=0;fontFamily=Times New Roman;fontSize=15;fontStyle=1;rotation=-90;" vertex="1" parent="1">
          <mxGeometry x="-470" y="300" width="60" height="30" as="geometry" />
        </mxCell>
        <mxCell id="qKRQruOHC8RujGuLGtq7-52" value="&lt;font face=&quot;Times New Roman&quot; style=&quot;font-size: 15px;&quot;&gt;&lt;b&gt;Lender.processingLoan&amp;nbsp;&lt;/b&gt;&lt;/font&gt;" style="text;html=1;strokeColor=none;fillColor=none;align=center;verticalAlign=middle;whiteSpace=wrap;rounded=0;" vertex="1" parent="1">
          <mxGeometry x="-990" y="800" width="60" height="30" as="geometry" />
        </mxCell>
        <mxCell id="qKRQruOHC8RujGuLGtq7-53" value="Customer.getConfirmation/&amp;nbsp;&lt;br&gt;Lender.logout&amp;nbsp;" style="text;html=1;strokeColor=none;fillColor=none;align=center;verticalAlign=middle;whiteSpace=wrap;rounded=0;fontFamily=Times New Roman;fontSize=15;fontStyle=1;rotation=0;" vertex="1" parent="1">
          <mxGeometry x="-230" y="460" width="60" height="30" as="geometry" />
        </mxCell>
        <mxCell id="qKRQruOHC8RujGuLGtq7-55" value="Customer.exitLoanProcessing/&amp;nbsp;&lt;br&gt;Lender.logout&amp;nbsp;" style="text;html=1;strokeColor=none;fillColor=none;align=center;verticalAlign=middle;whiteSpace=wrap;rounded=0;fontFamily=Times New Roman;fontSize=15;fontStyle=1;rotation=0;" vertex="1" parent="1">
          <mxGeometry x="-230" y="620" width="60" height="30" as="geometry" />
        </mxCell>
        <mxCell id="qKRQruOHC8RujGuLGtq7-59" value="Verification of bank details and Required process to disbursed Loan&amp;nbsp;" style="text;html=1;strokeColor=none;fillColor=none;align=center;verticalAlign=middle;whiteSpace=wrap;rounded=0;fontFamily=Times New Roman;fontStyle=3;fontSize=15;" vertex="1" parent="1">
          <mxGeometry x="-1130" y="1030" width="520" height="30" as="geometry" />
        </mxCell>
        <mxCell id="qKRQruOHC8RujGuLGtq7-64" value="" style="endArrow=none;dashed=1;html=1;rounded=0;" edge="1" parent="1">
          <mxGeometry width="50" height="50" relative="1" as="geometry">
            <mxPoint x="-1280" y="960" as="sourcePoint" />
            <mxPoint x="-440" y="960" as="targetPoint" />
          </mxGeometry>
        </mxCell>
        <mxCell id="qKRQruOHC8RujGuLGtq7-83" value="&lt;b&gt;&lt;font style=&quot;font-size: 15px;&quot; color=&quot;#8c0000&quot; face=&quot;Times New Roman&quot;&gt;Verification SUCCESSFUL&amp;nbsp;&lt;/font&gt;&lt;/b&gt;" style="text;html=1;strokeColor=none;fillColor=none;align=center;verticalAlign=middle;whiteSpace=wrap;rounded=0;rotation=-90;" vertex="1" parent="1">
          <mxGeometry x="-394" y="847" width="60" height="30" as="geometry" />
        </mxCell>
        <mxCell id="qKRQruOHC8RujGuLGtq7-84" value="" style="edgeStyle=none;orthogonalLoop=1;jettySize=auto;html=1;rounded=0;entryX=0.5;entryY=1;entryDx=0;entryDy=0;" edge="1" parent="1" target="qKRQruOHC8RujGuLGtq7-8">
          <mxGeometry width="100" relative="1" as="geometry">
            <mxPoint x="-585" y="880" as="sourcePoint" />
            <mxPoint x="-590" y="440" as="targetPoint" />
            <Array as="points" />
          </mxGeometry>
        </mxCell>
        <mxCell id="qKRQruOHC8RujGuLGtq7-85" value="&lt;b&gt;&lt;font style=&quot;font-size: 15px;&quot; color=&quot;#8c0000&quot; face=&quot;Times New Roman&quot;&gt;Verification UNSUCCESSFUL&amp;nbsp;&lt;/font&gt;&lt;/b&gt;" style="text;html=1;strokeColor=none;fillColor=none;align=center;verticalAlign=middle;whiteSpace=wrap;rounded=0;rotation=-90;" vertex="1" parent="1">
          <mxGeometry x="-640" y="670" width="60" height="30" as="geometry" />
        </mxCell>
      </root>
    </mxGraphModel>
  </diagram>
</mxfile>
